<?xml version="1.0" encoding="utf-8"?>
<!-- Generator: Adobe Illustrator 17.1.0, SVG Export Plug-In . SVG Version: 6.00 Build 0)  -->
<!DOCTYPE svg PUBLIC "-//W3C//DTD SVG 1.1//EN" "http://www.w3.org/Graphics/SVG/1.1/DTD/svg11.dtd">
<svg version="1.1" id="Layer_1" xmlns="http://www.w3.org/2000/svg" xmlns:xlink="http://www.w3.org/1999/xlink" x="0px" y="0px"
	 viewBox="0 0 252.4 42.2" enable-background="new 0 0 252.4 42.2" xml:space="preserve">
<rect x="0" y="-1" display="none" width="252.4" height="43.2"/>
<path d="M21.5-85.5l-0.1-0.2h-0.2h-0.9h-0.2L20-85.5L2.7-48.9l-0.2,0.4H3h4.1h0.2l0.1-0.2L13-60.5h15.4l5.7,11.9l0.1,0.2h0.2h4h0.5
	l-0.2-0.4L21.5-85.5z M26.5-64.6H14.9l5.8-12.3L26.5-64.6z M67.4-84.3c-2.5-0.9-6.5-1.3-12-1.3h-7.6h-0.3v0.3v36.7v0.3h0.3h11.7
	c4.6,0,8.2-0.7,10.8-2c2.6-1.3,4.7-3.5,6.3-6.3c1.6-2.8,2.4-6.1,2.4-9.8c0-4.3-1-8-3.1-11.2C73.9-80.9,71-83.1,67.4-84.3 M51.6-81.5
	h2.3c5.2,0,9,0.3,11.3,1c3,0.9,5.3,2.6,7,5c1.7,2.4,2.5,5.4,2.5,8.9c0,3.3-0.8,6.1-2.3,8.4c-1.5,2.3-3.7,3.9-6.3,4.7
	c-1.9,0.6-5.4,0.9-10.4,0.9h-3.9V-81.5z M107.1-86.6c-3.5,0-6.7,0.9-9.7,2.6c-3,1.7-5.4,4.1-7.1,7.2c-1.7,3-2.6,6.4-2.6,9.9
	c0,5.3,1.9,10,5.7,13.7c3.8,3.8,8.5,5.7,14,5.7c5.4,0,10.1-1.9,13.9-5.7c3.8-3.8,5.7-8.4,5.7-13.9c0-5.5-1.9-10.1-5.7-13.9
	C117.4-84.7,112.7-86.6,107.1-86.6 M122.5-67.1c0,2.9-0.7,5.5-2,7.8c-1.3,2.3-3.2,4.2-5.6,5.5c-2.4,1.3-5,2-7.8,2
	c-4.2,0-7.8-1.5-10.7-4.4c-2.9-2.9-4.4-6.6-4.4-10.8c0-2.9,0.7-5.5,2-7.9c1.3-2.3,3.2-4.2,5.6-5.6c2.4-1.4,4.9-2.1,7.6-2.1
	c2.7,0,5.3,0.7,7.7,2.1c2.4,1.4,4.3,3.2,5.6,5.5C121.9-72.5,122.5-69.9,122.5-67.1 M155.3-86.6c-3.5,0-6.7,0.9-9.7,2.6
	c-3,1.7-5.4,4.1-7.1,7.2c-1.7,3-2.6,6.4-2.6,9.9c0,5.3,1.9,10,5.7,13.7c3.8,3.8,8.5,5.7,14,5.7c5.4,0,10.1-1.9,13.9-5.7
	c3.8-3.8,5.7-8.4,5.7-13.9c0-5.5-1.9-10.1-5.7-13.9C165.6-84.7,160.9-86.6,155.3-86.6 M168.7-74.8c1.3,2.3,2,4.9,2,7.7
	c0,2.9-0.7,5.5-2,7.8c-1.3,2.3-3.2,4.2-5.6,5.5c-2.4,1.3-5,2-7.8,2c-4.2,0-7.8-1.5-10.7-4.4c-2.9-2.9-4.4-6.6-4.4-10.8
	c0-2.9,0.7-5.5,2-7.9c1.3-2.3,3.2-4.2,5.6-5.6c2.4-1.4,4.9-2.1,7.6-2.1c2.7,0,5.3,0.7,7.7,2.1C165.5-79,167.4-77.1,168.7-74.8
	 M197.1-65.5c2.8-0.1,5.1-0.5,6.7-1.2c1.8-0.8,3.2-2,4.2-3.5c1-1.6,1.5-3.4,1.5-5.4c0-2.5-0.7-4.6-2.1-6.2c-1.4-1.7-3.2-2.8-5.5-3.3
	c-1.5-0.3-4.3-0.5-8.3-0.5h-7.3h-0.3v0.3v36.7v0.3h0.3h3.7h0.3v-0.3v-16.7h1.6l13.1,16.9l0.1,0.1h0.1h4.5h0.6l-0.4-0.5L197.1-65.5z
	 M204.1-72.4c-0.6,1-1.5,1.7-2.6,2.1c-1.1,0.4-2.9,0.7-5.3,0.7l-6,0v-11.9h6.2c2.5,0,4.2,0.2,5.3,0.6c1,0.4,1.9,1.1,2.5,2
	c0.6,0.9,0.9,2,0.9,3.2C205-74.4,204.7-73.3,204.1-72.4 M249.9-85.7v0.3v36.7v0.3h-0.3h-0.8h-0.1l-0.1-0.1l-23.7-27.2v27v0.3h-0.3
	h-3.8h-0.3v-0.3v-36.7v-0.3h0.3h0.8h0.1l0.1,0.1l23.9,27.5v-27.3v-0.3h0.3h3.6H249.9z"/>
<path fill="#FFFFFF" d="M21.5,2.7l-0.1-0.2h-0.2h-0.9h-0.2L20,2.7L2.7,39.4l-0.2,0.4H3h4.1h0.2l0.1-0.2L13,27.8h15.4l5.7,11.9
	l0.1,0.2h0.2h4h0.5l-0.2-0.4L21.5,2.7z M26.5,23.6H14.9l5.8-12.3L26.5,23.6z M67.4,3.9c-2.5-0.9-6.5-1.3-12-1.3h-7.6h-0.3v0.3v36.7
	v0.3h0.3h11.7c4.6,0,8.2-0.7,10.8-2c2.6-1.3,4.7-3.5,6.3-6.3c1.6-2.8,2.4-6.1,2.4-9.8c0-4.3-1-8-3.1-11.2C73.9,7.4,71,5.2,67.4,3.9
	 M51.6,6.8h2.3c5.2,0,9,0.3,11.3,1c3,0.9,5.3,2.6,7,5c1.7,2.4,2.5,5.4,2.5,8.9c0,3.3-0.8,6.1-2.3,8.4c-1.5,2.3-3.7,3.9-6.3,4.7
	c-1.9,0.6-5.4,0.9-10.4,0.9h-3.9V6.8z M107.1,1.6c-3.5,0-6.7,0.9-9.7,2.6c-3,1.7-5.4,4.1-7.1,7.2c-1.7,3-2.6,6.4-2.6,9.9
	c0,5.3,1.9,10,5.7,13.7c3.8,3.8,8.5,5.7,14,5.7c5.4,0,10.1-1.9,13.9-5.7c3.8-3.8,5.7-8.4,5.7-13.9c0-5.5-1.9-10.1-5.7-13.9
	C117.4,3.5,112.7,1.6,107.1,1.6 M122.5,21.2c0,2.9-0.7,5.5-2,7.8c-1.3,2.3-3.2,4.2-5.6,5.5c-2.4,1.3-5,2-7.8,2
	c-4.2,0-7.8-1.5-10.7-4.4c-2.9-2.9-4.4-6.6-4.4-10.8c0-2.9,0.7-5.5,2-7.9c1.3-2.3,3.2-4.2,5.6-5.6c2.4-1.4,4.9-2.1,7.6-2.1
	c2.7,0,5.3,0.7,7.7,2.1c2.4,1.4,4.3,3.2,5.6,5.5C121.9,15.7,122.5,18.3,122.5,21.2 M155.3,1.6c-3.5,0-6.7,0.9-9.7,2.6
	c-3,1.7-5.4,4.1-7.1,7.2c-1.7,3-2.6,6.4-2.6,9.9c0,5.3,1.9,10,5.7,13.7c3.8,3.8,8.5,5.7,14,5.7c5.4,0,10.1-1.9,13.9-5.7
	c3.8-3.8,5.7-8.4,5.7-13.9c0-5.5-1.9-10.1-5.7-13.9C165.6,3.5,160.9,1.6,155.3,1.6 M168.7,13.4c1.3,2.3,2,4.9,2,7.7
	c0,2.9-0.7,5.5-2,7.8c-1.3,2.3-3.2,4.2-5.6,5.5c-2.4,1.3-5,2-7.8,2c-4.2,0-7.8-1.5-10.7-4.4c-2.9-2.9-4.4-6.6-4.4-10.8
	c0-2.9,0.7-5.5,2-7.9c1.3-2.3,3.2-4.2,5.6-5.6c2.4-1.4,4.9-2.1,7.6-2.1c2.7,0,5.3,0.7,7.7,2.1C165.5,9.3,167.4,11.1,168.7,13.4
	 M197.1,22.8c2.8-0.1,5.1-0.5,6.7-1.2c1.8-0.8,3.2-2,4.2-3.5c1-1.6,1.5-3.4,1.5-5.4c0-2.5-0.7-4.6-2.1-6.2c-1.4-1.7-3.2-2.8-5.5-3.3
	c-1.5-0.3-4.3-0.5-8.3-0.5h-7.3h-0.3v0.3v36.7v0.3h0.3h3.7h0.3v-0.3V22.8h1.6l13.1,16.9l0.1,0.1h0.1h4.5h0.6l-0.4-0.5L197.1,22.8z
	 M204.1,15.9c-0.6,1-1.5,1.7-2.6,2.1c-1.1,0.4-2.9,0.7-5.3,0.7l-6,0V6.8h6.2c2.5,0,4.2,0.2,5.3,0.6c1,0.4,1.9,1.1,2.5,2
	c0.6,0.9,0.9,2,0.9,3.2C205,13.8,204.7,14.9,204.1,15.9 M249.9,2.6v0.3v36.7v0.3h-0.3h-0.8h-0.1l-0.1-0.1l-23.7-27.2v27v0.3h-0.3
	h-3.8h-0.3v-0.3V2.9V2.6h0.3h0.8h0.1l0.1,0.1l23.9,27.5V2.9V2.6h0.3h3.6H249.9z"/>
</svg>
